<svg version="1.1" id="Layer_1" xmlns="http://www.w3.org/2000/svg" xmlns:xlink="http://www.w3.org/1999/xlink" x="0px" y="0px" viewBox="0 0 500 500" style="width: 166px;" xml:space="preserve" data-imageid="online-search-92" imageName="Online Search" class="illustrations_image">
<style type="text/css">
	.st0_online-search-92{fill:#68E1FD;}
	.st1_online-search-92{fill:#093F68;}
	.st2_online-search-92{fill:#FFFFFF;}
	.st3_online-search-92{fill:#DFEAEF;}
	.st4_online-search-92{fill:#FFC9B0;}
	.st5_online-search-92{fill:#F56132;}
	.st6_online-search-92{fill:#725858;}
</style>
<g id="device_online-search-92">
	<path class="st0_online-search-92 targetColor" d="M480.5,140.4v191.1c-0.1,9.3-7.8,16.8-17.1,16.7H179.6c-4.7,0-9.2-1.9-12.5-5.3c-3-3-4.6-7.1-4.6-11.4V140.4&#10;&#9;&#9;c0.1-9.3,7.7-16.7,17-16.6c0,0,0.1,0,0.1,0h283.8c9.3-0.2,16.9,7.2,17.1,16.5C480.5,140.3,480.5,140.3,480.5,140.4z" style="fill: rgb(104, 225, 253);"/>
	<path class="st1_online-search-92" d="M463.5,350H179.6c-5.2,0-10.2-2.1-13.8-5.8c-3.3-3.4-5.2-8-5.2-12.7V140.4c0.1-10.3,8.6-18.6,18.9-18.5&#10;&#9;&#9;c0,0,0.1,0,0.1,0h283.8c10.4-0.1,18.9,8.1,19,18.5v191.1C482.3,341.8,473.8,350.1,463.5,350C463.5,350,463.5,350,463.5,350z&#10;&#9;&#9; M179.7,125.6c-8.3-0.1-15.1,6.5-15.3,14.8v191.1c0,3.8,1.5,7.4,4.2,10.1c2.9,3,7,4.7,11.2,4.7h283.7c8.3,0.1,15.1-6.5,15.3-14.8&#10;&#9;&#9;V140.4c-0.1-8.3-7-14.9-15.3-14.8L179.7,125.6z"/>
	<polygon class="st0_online-search-92 targetColor" points="380.4,393.7 262.8,393.7 275.1,348.2 367.9,348.2 &#9;" style="fill: rgb(104, 225, 253);"/>
	<path class="st1_online-search-92" d="M380.4,395.5H262.8c-0.6,0-1.1-0.3-1.5-0.7c-0.4-0.4-0.5-1.1-0.3-1.6l12.4-45.5c0.2-0.8,1-1.4,1.8-1.4h92.7&#10;&#9;&#9;c0.8,0,1.6,0.6,1.8,1.4l12.4,45.5c0.3,1-0.3,2-1.3,2.3c0,0,0,0,0,0L380.4,395.5z M265.2,391.8h112.7L366.5,350h-89.8L265.2,391.8z"/>
	<circle class="st1_online-search-92" cx="321.5" cy="323.6" r="7.2"/>
	<path class="st1_online-search-92" d="M321.5,332.7c-5,0-9.1-4.1-9.1-9.1s4.1-9.1,9.1-9.1s9.1,4.1,9.1,9.1l0,0C330.6,328.6,326.6,332.7,321.5,332.7z&#10;&#9;&#9; M321.5,318.2c-3,0-5.4,2.4-5.4,5.4c0,3,2.4,5.4,5.4,5.4c3,0,5.4-2.4,5.4-5.4l0,0l0,0C327,320.6,324.6,318.2,321.5,318.2&#10;&#9;&#9;C321.6,318.2,321.6,318.2,321.5,318.2z"/>
	<path class="st1_online-search-92" d="M480.5,139.6v162.2h-318V139.6c0.1-9.3,7.7-16.7,17-16.6c0,0,0.1,0,0.1,0h283.8c9.3-0.2,16.9,7.2,17.1,16.5&#10;&#9;&#9;C480.5,139.5,480.5,139.5,480.5,139.6z"/>
	<path class="st1_online-search-92" d="M480.5,303.7h-318c-1,0-1.9-0.8-1.9-1.8V139.6c0.1-10.3,8.6-18.6,18.9-18.5c0,0,0.1,0,0.1,0h283.8&#10;&#9;&#9;c10.4-0.1,18.9,8.1,19,18.5v162.2C482.4,302.8,481.6,303.7,480.5,303.7z M164.4,300h314.4V139.6c-0.1-8.3-7-14.9-15.3-14.8H179.6&#10;&#9;&#9;c-8.3-0.1-15.1,6.5-15.3,14.8L164.4,300z"/>
	<path class="st1_online-search-92" d="M401.4,395.5H241.8c-1,0-1.9-0.8-1.9-1.9c0-1,0.8-1.9,1.9-1.9c0,0,0,0,0,0h159.6c1,0,1.9,0.8,1.9,1.9&#10;&#9;&#9;C403.3,394.6,402.4,395.5,401.4,395.5C401.4,395.5,401.4,395.5,401.4,395.5z"/>
	<path class="st1_online-search-92" d="M481.7,410.7H88.7c-1.9,0-3.5-1.6-3.5-3.5v-11.9c0-1.9,1.6-3.5,3.5-3.5h392.9c1.9,0,3.5,1.6,3.5,3.5v11.9&#10;&#9;&#9;C485.2,409.2,483.6,410.7,481.7,410.7z"/>
</g>
<g id="speech-bubble_online-search-92">
	<path class="st2_online-search-92" d="M194.4,69.2h175c7.2,0,13,5.8,13,13l0,0v124.3c0,7.2-5.8,13-13,13l0,0h-12v22l-17.4-22H194.4&#10;&#9;&#9;c-7.2,0-13-5.8-13-13l0,0l0,0V82.2C181.4,75,187.2,69.2,194.4,69.2L194.4,69.2z"/>
	<path class="st1_online-search-92" d="M356.1,242.5l-16.9-21.4H194.5c-8.1,0-14.6-6.6-14.6-14.6V82.2c0-8.1,6.6-14.6,14.6-14.6h175&#10;&#9;&#9;c8.1,0,14.6,6.6,14.6,14.6v124.4c0,8.1-6.6,14.6-14.6,14.6H359v20.4l0,0c0,0.9-0.8,1.6-1.6,1.5&#10;&#9;&#9;C356.9,243.1,356.4,242.9,356.1,242.5z M194.3,70.7c-6.3,0-11.5,5.1-11.5,11.5v124.4c0,6.3,5.1,11.4,11.5,11.4h145.6&#10;&#9;&#9;c0.5,0,1,0.2,1.3,0.6l14.5,18.4v-17.3c0-0.9,0.7-1.6,1.6-1.6c0,0,0,0,0,0h12.1c6.3,0,11.5-5.1,11.5-11.5V82.3&#10;&#9;&#9;c0-6.3-5.1-11.5-11.5-11.5l0,0L194.3,70.7z"/>
	<path class="st3_online-search-92" d="M309.8,87.8h47.5c0.9,0,1.6-0.7,1.7-1.6c0,0,0,0,0,0c0-0.9-0.7-1.6-1.5-1.6c0,0-0.1,0-0.1,0h-47.5&#10;&#9;&#9;c-0.9-0.1-1.7,0.6-1.8,1.5c-0.1,0.9,0.6,1.7,1.5,1.8C309.7,87.8,309.8,87.8,309.8,87.8L309.8,87.8z"/>
	<path class="st3_online-search-92" d="M344,109.2h13.4c0.9,0,1.6-0.7,1.6-1.6c0,0,0,0,0,0c0-0.9-0.7-1.6-1.5-1.6c0,0-0.1,0-0.1,0H344&#10;&#9;&#9;c-0.9,0-1.6,0.7-1.6,1.6c0,0,0,0,0,0c0,0.9,0.7,1.6,1.5,1.6C343.9,109.2,344,109.2,344,109.2z"/>
	<path class="st3_online-search-92" d="M325.5,200.3h31.8c0.9,0,1.6-0.7,1.7-1.6c0,0,0,0,0,0c0-0.9-0.7-1.6-1.5-1.6c0,0-0.1,0-0.1,0h-31.9&#10;&#9;&#9;c-0.9,0.1-1.6,0.9-1.5,1.8C324.1,199.6,324.7,200.3,325.5,200.3L325.5,200.3z"/>
	<path class="st3_online-search-92" d="M201.8,91h35.5c0.9,0,1.6-0.7,1.6-1.6c0-0.9-0.6-1.6-1.5-1.6c0,0-0.1,0-0.1,0h-35.6c-0.9,0-1.6,0.7-1.6,1.6&#10;&#9;&#9;C200.2,90.3,200.9,91,201.8,91L201.8,91z"/>
	<path class="st3_online-search-92" d="M205.2,107.2h18.3c0.9,0,1.6-0.7,1.6-1.6c0-0.9-0.6-1.6-1.5-1.6c0,0-0.1,0-0.1,0h-18.3c-0.9,0-1.6,0.7-1.6,1.6&#10;&#9;&#9;c0,0,0,0,0,0c0,0.9,0.7,1.6,1.5,1.6C205.2,107.2,205.2,107.2,205.2,107.2z"/>
	<path class="st3_online-search-92" d="M205.2,123.3h18.3c0.9,0.1,1.6-0.6,1.7-1.5s-0.6-1.6-1.5-1.7h-18.6c-0.9,0-1.6,0.7-1.6,1.6&#10;&#9;&#9;c0,0.8,0.6,1.5,1.3,1.6H205.2z"/>
	<path class="st3_online-search-92" d="M347.7,162.5h9.7c0.9,0.1,1.7-0.5,1.8-1.3c0.1-0.9-0.5-1.7-1.3-1.8c-0.1,0-0.2,0-0.2,0h-9.9&#10;&#9;&#9;c-0.9,0-1.6,0.7-1.6,1.6c0,0.8,0.6,1.5,1.3,1.6H347.7z"/>
</g>
<g id="magnifying-glass_online-search-92">
	
		<rect x="229.2" y="201.1" transform="matrix(0.3809 -0.9246 0.9246 0.3809 -42.3234 355.3196)" class="st0_online-search-92 targetColor" width="30" height="16.4" style="fill: rgb(104, 225, 253);"/>
	<path class="st1_online-search-92" d="M229.1,220.8c-0.2-0.5-0.2-0.9,0-1.4l11.4-27.7c0.4-0.9,1.5-1.4,2.4-1l0,0l15.2,6.3c0.9,0.4,1.4,1.5,1,2.4l0,0&#10;&#9;&#9;L247.7,227c-0.2,0.5-0.5,0.8-1,1c-0.4,0.2-0.9,0.2-1.4,0l-15.2-6.3C229.6,221.6,229.3,221.2,229.1,220.8z M243.3,194.8l-10,24.3&#10;&#9;&#9;l11.7,4.8l10-24.4L243.3,194.8z"/>
	
		<rect x="238.1" y="175.1" transform="matrix(0.3809 -0.9246 0.9246 0.3809 -16.815 350.2229)" class="st0_online-search-92 targetColor" width="30" height="25.2" style="fill: rgb(104, 225, 253);"/>
	<path class="st1_online-search-92" d="M234,197.3c-0.2-0.4-0.2-0.9,0-1.4l11.4-27.7c0.4-0.9,1.5-1.4,2.4-1l0,0l23.4,9.6c0.5,0.2,0.8,0.5,1,1&#10;&#9;&#9;c0.2,0.5,0.2,0.9,0,1.4l-11.4,27.7c-0.4,0.9-1.5,1.4-2.4,1l-23.3-9.6C234.6,198.2,234.1,197.8,234,197.3L234,197.3z M248.1,171.3&#10;&#9;&#9;l-10,24.3l19.9,8.2l10-24.3L248.1,171.3z"/>
	<path class="st0_online-search-92 targetColor" d="M222.8,286.6l-18-7.5c-1.5-0.6-2.2-2.3-1.6-3.7c0,0,0,0,0-0.1l24-58.2c0.6-1.5,2.3-2.2,3.7-1.6c0,0,0,0,0.1,0&#10;&#9;&#9;l18,7.4c1.5,0.6,2.2,2.3,1.6,3.7c0,0,0,0,0,0.1l-24,58.2C225.9,286.5,224.3,287.2,222.8,286.6z" style="fill: rgb(104, 225, 253);"/>
	<path class="st1_online-search-92" d="M202.4,277.7c-0.7-1.7-0.7-3.7,0.1-5.4l22.1-53.6c1.5-3.7,5.7-5.4,9.4-3.9l13.4,5.6c1.8,0.7,3.2,2.1,3.9,3.8&#10;&#9;&#9;c0.7,1.8,0.7,3.8,0,5.6l-22.1,53.6c-1.5,3.7-5.7,5.4-9.4,3.9l-13.4-5.6l0,0c-1.8-0.7-3.2-2.1-3.9-3.8L202.4,277.7z M207.1,280.1&#10;&#9;&#9;l40.8-54.4v-0.1c-0.4-0.9-1-1.6-1.9-1.9l-13.4-5.6c-1.8-0.7-3.8,0.1-4.6,1.9l0,0l-22.1,53.6c-0.7,1.8,0.1,3.9,1.9,4.6l0,0l13.4,5.6&#10;&#9;&#9;c1.8,0.7,3.8-0.1,4.6-1.8l0,0l22.1-53.6c0.4-0.8,0.4-1.8,0.1-2.6L207.1,280.1z"/>
	<path class="st0_online-search-92 targetColor" d="M329,159c12.5-30.3-1.9-64.9-32.2-77.4c-30.3-12.5-64.9,1.9-77.4,32.2c-12.5,30.3,1.9,64.9,32.2,77.4&#10;&#9;&#9;c0,0,0,0,0,0C281.9,203.7,316.5,189.3,329,159C329,159,329,159,329,159z" style="fill: rgb(104, 225, 253);"/>
	<path class="st1_online-search-92" d="M217,158.4c-15.5-35,0.3-76,35.3-91.5s76,0.3,91.5,35.3c15.5,35-0.3,76-35.3,91.5&#10;&#9;&#9;c-34.4,15.2-74.7,0.3-90.8-33.7C217.4,159.4,217.2,158.9,217,158.4z M327.7,115.9l-0.6-1.5c-12.2-30-46.3-44.5-76.4-32.3&#10;&#9;&#9;s-44.5,46.3-32.3,76.4c12.2,30,46.3,44.5,76.4,32.3C324.2,178.9,338.8,145.7,327.7,115.9z"/>
	<path class="st2_online-search-92" d="M314.8,137.1c0,9.6-3.4,18.8-9.5,26.2c-0.7,0.9-1.5,1.7-2.2,2.5c-15.8,16-41.6,16.2-57.7,0.3c0,0,0,0,0,0&#10;&#9;&#9;l-0.3-0.3c-0.8-0.8-1.5-1.6-2.2-2.5c-12.7-15.2-12.7-37.2,0-52.4c0.7-0.9,1.5-1.7,2.2-2.5c15.8-16,41.5-16.2,57.5-0.4&#10;&#9;&#9;c0,0,0.1,0.1,0.1,0.1l0.3,0.3c0.8,0.8,1.5,1.6,2.2,2.5C311.4,118.2,314.8,127.5,314.8,137.1z"/>
	<path class="st1_online-search-92" d="M274.1,179.7c-11.4,0-22.3-4.5-30.3-12.6c-0.8-0.8-1.6-1.7-2.4-2.6c-13.3-15.8-13.3-38.9,0-54.7&#10;&#9;&#9;c0.7-0.9,1.5-1.8,2.4-2.6c16.5-16.7,43.5-16.9,60.2-0.4l0.4,0.4c0.8,0.8,1.6,1.7,2.4,2.6c13.3,15.8,13.3,38.9,0,54.7&#10;&#9;&#9;c-0.7,0.9-1.5,1.8-2.4,2.6C296.4,175.1,285.5,179.6,274.1,179.7z M274.1,98.2c-10.4,0-20.3,4.1-27.6,11.5c-0.7,0.8-1.4,1.5-2.1,2.4&#10;&#9;&#9;c-12.1,14.5-12.1,35.5,0,50l2.1,2.4c15.1,15.3,39.7,15.4,55,0.3c0,0,0,0,0,0l0.3-0.3c0.8-0.7,1.5-1.5,2.1-2.4&#10;&#9;&#9;c12.1-14.5,12.1-35.5,0-50l-2.1-2.4C294.5,102.2,284.5,98.1,274.1,98.2z"/>
	<path class="st1_online-search-92" d="M274.1,179.7c-11.4,0-22.3-4.5-30.3-12.6c-0.8-0.8-1.6-1.7-2.4-2.6c-0.3-0.4-0.5-0.9-0.4-1.4&#10;&#9;&#9;c0.1-0.5,0.3-0.9,0.7-1.2c0.8-0.6,1.5-1.2,2.3-1.8c8-5.6,18.7-8.7,30-8.7s22,3.1,30,8.7l2.4,1.8c0.8,0.6,0.9,1.8,0.3,2.6l0,0&#10;&#9;&#9;c-0.7,0.9-1.5,1.8-2.4,2.6C296.3,175.1,285.5,179.6,274.1,179.7z M245.6,163.5l0.9,0.9c15.1,15.3,39.7,15.4,55,0.3c0,0,0,0,0,0&#10;&#9;&#9;l0.3-0.3l0.9-0.9l-0.6-0.4c-7.4-5.2-17.3-8-27.9-8s-20.5,2.9-27.9,8L245.6,163.5z"/>
	<path class="st1_online-search-92" d="M274.1,122.8c-11.3,0-22-3.1-30.1-8.7l-2.4-1.8c-0.8-0.6-0.9-1.7-0.3-2.5c0,0,0-0.1,0.1-0.1&#10;&#9;&#9;c0.7-0.9,1.5-1.8,2.4-2.6c16.5-16.7,43.5-16.9,60.2-0.4l0.4,0.4c0.8,0.8,1.6,1.7,2.4,2.6c0.6,0.8,0.5,1.9-0.2,2.6&#10;&#9;&#9;c-0.8,0.6-1.5,1.2-2.4,1.8C296.1,119.7,285.4,122.8,274.1,122.8z M245.6,110.6l0.6,0.4c7.4,5.2,17.3,8.1,27.9,8.1&#10;&#9;&#9;s20.5-2.9,27.9-8.1l0.6-0.4l-0.9-0.9c-15.1-15.3-39.7-15.4-55-0.3c0,0,0,0,0,0l-0.3,0.3C246.2,110,245.8,110.3,245.6,110.6z"/>
	<path class="st1_online-search-92" d="M274.1,179.7c-14.1,0-25.2-18.7-25.2-42.6s11.1-42.6,25.2-42.6c13.9,0,25.2,19.1,25.2,42.6&#10;&#9;&#9;C299.3,161,288.2,179.7,274.1,179.7z M274.1,98.2c-11.9,0-21.5,17.4-21.5,38.9s9.6,38.9,21.5,38.9s21.5-17.4,21.5-38.9&#10;&#9;&#9;S285.9,98.2,274.1,98.2z"/>
	<path class="st1_online-search-92" d="M314.8,138.9h-81.5c-1,0.1-2-0.6-2.1-1.6c-0.1-1,0.6-2,1.6-2.1c0.1,0,0.2,0,0.2,0h81.8c1,0,1.9,0.8,1.9,1.8&#10;&#9;&#9;c0,0.9-0.7,1.7-1.6,1.9H314.8z"/>
	<path class="st1_online-search-92" d="M274.1,179.7c-1,0-1.9-0.9-1.9-1.9V96.3c0-1,0.9-1.9,1.9-1.9c1,0,1.9,0.8,1.9,1.8c0,0,0,0.1,0,0.1v81.5&#10;&#9;&#9;C276,178.8,275.1,179.6,274.1,179.7L274.1,179.7z"/>
</g>
<g id="character_online-search-92">
	<path class="st4_online-search-92" d="M182.2,170.6c13.4,33,27.9,17.5,32.4,12l-9.3,64.9c-4.7,32.3-33.2,55.7-65.8,53.9l-1.9,13.3&#10;&#9;&#9;c-0.8,5.9-6.2,10-12.1,9.2s-10-6.2-9.2-12.1c0-0.1,0-0.1,0-0.2l1.8-12.5c-37.6-6.8-51.4-42-47.2-71L89,171.8&#10;&#9;&#9;C89,171.8,111,194.6,182.2,170.6z"/>
	<path class="st1_online-search-92" d="M129.1,325.7c-7,1.2-13.6-3.4-14.8-10.4c-0.2-1.3-0.3-2.7-0.1-4l1.5-10.6c-17-3.6-30.3-13.2-38.7-27.8&#10;&#9;&#9;c-7.5-13-10.4-29.4-8.2-45.1c0-0.1,0-0.2,0.1-0.3l18-56.3c0.3-1.1,1.4-1.7,2.5-1.4c0.4,0.1,0.7,0.3,0.9,0.6&#10;&#9;&#9;c0.2,0.2,22.3,21.5,91.1-1.8c1-0.4,2.2,0.2,2.5,1.2c4.7,11.6,10.1,18.2,15.6,19.1c4.2,0.6,8.7-1.9,13.4-7.6&#10;&#9;&#9;c0.6-0.9,1.9-1.1,2.8-0.5c0.7,0.5,1,1.3,0.8,2.1l-9.3,64.9c-4.9,32.6-33.2,56.4-66.1,55.7l-1.6,11.5&#10;&#9;&#9;C138.8,320.5,134.6,324.8,129.1,325.7z M72.9,228.6c-4.1,29.2,10.2,62.1,45.6,68.5c1.1,0.2,1.8,1.2,1.7,2.3l-1.8,12.5&#10;&#9;&#9;c-0.7,4.8,2.6,9.2,7.4,9.9c0,0,0,0,0,0c4.8,0.7,9.2-2.6,9.9-7.4l1.9-13.3c0.2-1,1.1-1.8,2.1-1.8c31.5,1.6,59.1-21,63.7-52.2&#10;&#9;&#9;l8.4-58.7c-4.2,3.6-8.4,5.1-12.6,4.4c-6.8-1-12.8-7.7-18-19.8c-58.2,19.3-83.6,7.4-91.1,2.2L72.9,228.6z"/>
	<path class="st1_online-search-92" d="M111.2,434.2c-1.1,0-2-0.9-2-2v-86c0-1.1,0.9-2,2-2c1.1,0,2,0.9,2,2v85.9c0,1.1-0.9,2-2,2&#10;&#9;&#9;C111.3,434.2,111.2,434.2,111.2,434.2z"/>
	<path class="st0_online-search-92 targetColor" d="M59.8,432.2L81,317.1l1.7-2c3.9-3.8,9.1-5.9,14.5-5.9h81.4c2.2,0,10.4-1.1,23.5,9.9&#10;&#9;&#9;c19,15.9,33.4,37.7,47.6,51.2L235,320.8l39.5-13.9c0.3,0.9,10.7,18.2,20.7,39.7c18.4,39.5,14.7,55.5,9.3,65.4&#10;&#9;&#9;c-3.9,7.4-10.8,12.8-18.9,14.7c-2.4,0.6-4.8,0.9-7.3,0.9c-16.3,0-42.4-3-73.9-35.2c-2.4-2.5-4.8-5-7.1-7.4l-15,47.3L59.8,432.2z" style="fill: rgb(104, 225, 253);"/>
	<path class="st1_online-search-92" d="M182.3,434.2H59.8c-1.1,0-2-0.9-2-2c0-0.1,0-0.3,0-0.4L79,316.8c0.1-0.4,0.2-0.7,0.4-1c1.1-1.3,1.7-2,1.7-2&#10;&#9;&#9;c4.3-4.2,10.1-6.5,16.1-6.5h81.9c3.2-0.1,11.5-0.3,24.4,10.4c11.3,9.5,21.2,21.2,29.9,31.5c4.2,4.9,8.2,9.7,12.1,13.9L233,321.4&#10;&#9;&#9;c-0.3-1,0.2-2.2,1.3-2.5l39.5-13.9c1-0.4,2.2,0.1,2.6,1.2c0,0,0,0.1,0,0.1c0.1,0.2,0.6,1.2,1.5,2.7c3.4,6,11.4,20.1,19.1,36.8&#10;&#9;&#9;c18.8,40.1,14.8,57,9.2,67.2c-4.2,7.9-11.6,13.6-20.2,15.7c-2.5,0.6-5.1,0.9-7.8,0.9c-17.3,0-44-3.7-75.4-35.9&#10;&#9;&#9;c-1.6-1.6-3.2-3.3-4.7-4.9l-13.9,44C184,433.7,183.2,434.2,182.3,434.2z M62.3,430.2h118.5l14.5-45.9c0.3-1.1,1.4-1.7,2.5-1.4&#10;&#9;&#9;c0.4,0.1,0.7,0.3,1,0.6c2.3,2.4,4.7,4.9,7.1,7.4c29.9,30.7,54.4,34.6,72.4,34.6c2.3,0,4.6-0.3,6.8-0.8c7.6-1.8,14-6.8,17.6-13.7&#10;&#9;&#9;c5.1-9.4,8.6-25-9.4-63.5c-7.7-16.5-15.6-30.5-19-36.5l-0.9-1.5l-36,12.7l14.2,47.9c0.4,1-0.1,2.2-1.1,2.6&#10;&#9;&#9;c-0.8,0.3-1.7,0.1-2.2-0.5c-5.9-5.7-11.8-12.7-18.1-20.1c-9-10.7-18.4-21.8-29.4-31c-11.6-9.8-18.9-9.5-21.6-9.5h-82&#10;&#9;&#9;c-4.9,0-9.6,1.9-13.1,5.3l-1.2,1.3L62.3,430.2z"/>
	<path class="st1_online-search-92" d="M196.8,386.3c-0.3,0-0.5-0.1-0.8-0.1c-1-0.4-1.6-1.5-1.2-2.6c0,0,0-0.1,0-0.1l12.2-31c0.4-1,1.6-1.6,2.6-1.1&#10;&#9;&#9;c1,0.4,1.6,1.6,1.2,2.6l0,0l-12.3,31C198.4,385.8,197.6,386.3,196.8,386.3z"/>
	<path class="st1_online-search-92" d="M122.6,330.7H56.2c-12.8,0-22.1,10.4-20.7,23.2l8.5,78.5h112.8l-8.5-78.5C147,341.1,135.4,330.7,122.6,330.7z"/>
	<path class="st1_online-search-92" d="M156.9,434.2H44c-0.9,0-1.7-0.7-1.8-1.6l-8.5-78.4c-1.7-12.2,6.9-23.4,19.1-25.1c1.1-0.2,2.3-0.2,3.5-0.2h66.4&#10;&#9;&#9;c13.7,0,26.1,11.2,27.6,24.9l8.5,78.4c0.1,1-0.6,1.9-1.6,2C157,434.2,157,434.2,156.9,434.2z M45.7,430.5h109.1l-8.3-76.4&#10;&#9;&#9;c-1.3-11.9-12-21.6-23.9-21.6H56.2c-5.4-0.1-10.6,2.1-14.2,6.1c-3.6,4.1-5.3,9.6-4.6,15L45.7,430.5z"/>
	<path class="st5_online-search-92" d="M112.4,330.7H46.1c-12.8,0-22.1,10.4-20.7,23.2l8.5,78.5h112.8l-8.5-78.5C136.8,341.1,125.3,330.7,112.4,330.7&#10;&#9;&#9;z"/>
	<path class="st1_online-search-92" d="M146.7,434.2H33.9c-1,0-1.8-0.7-1.9-1.6l-8.5-78.4c-0.8-6.5,1.2-13,5.5-17.9c4.3-4.8,10.5-7.5,17-7.4h66.4&#10;&#9;&#9;c13.7,0,26.1,11.2,27.6,24.9l8.5,78.4c0,0.5-0.1,1-0.5,1.4C147.7,434,147.2,434.2,146.7,434.2z M35.5,430.5h109.1l-8.3-76.4&#10;&#9;&#9;c-1.3-11.9-12-21.6-23.9-21.6H46.1c-5.4-0.1-10.6,2.1-14.2,6.1c-3.6,4.1-5.3,9.6-4.6,15L35.5,430.5z"/>
	<path class="st4_online-search-92" d="M240.7,318.8l-16.9-38.6c0,0,21.7-61.5,26.1-55.6s4.8,49.7,4.8,49.7s1.5,10.8,17.2,33.6L240.7,318.8z"/>
	<path class="st1_online-search-92" d="M240.7,320.8c-0.8,0-1.6-0.5-1.9-1.2L221.9,281c-0.2-0.5-0.2-1-0.1-1.5c0.1-0.1,4.9-14,10.5-27.7&#10;&#9;&#9;c11.6-28.9,14.6-29.3,16.4-29.6c1.1-0.2,2.2,0.3,2.8,1.2c4.6,6.1,5.2,43,5.2,50.7c0.2,1.1,2.5,11.8,16.8,32.6&#10;&#9;&#9;c0.7,0.9,0.5,2.1-0.4,2.8c-0.2,0.1-0.4,0.2-0.6,0.3l-31.2,11C241.1,320.8,240.9,320.9,240.7,320.8z M225.9,280.1l15.9,36.2&#10;&#9;&#9;l26.9-9.5c-14.4-21.5-16-31.8-16-32.2c0-0.1,0-0.2,0-0.3c-0.1-15.6-1.3-41.2-3.9-47.5C244.6,231.4,234.3,256.5,225.9,280.1&#10;&#9;&#9;L225.9,280.1z"/>
	<path class="st4_online-search-92" d="M224.9,281.1c-0.8-4.8-2.4-9.4-3.5-14.1s-1.7-9.7-0.4-14.4c0.5-1.8,2-3.9,3.8-3.3c0.7,0.3,1.3,0.8,1.7,1.5&#10;&#9;&#9;c3.5,4.9,5.6,10.7,7.7,16.4c0.4,1.2,0.9,2.5,1.3,3.7"/>
	<path class="st1_online-search-92" d="M224.9,283.2c-1,0-1.9-0.7-2-1.7c-0.5-2.8-1.2-5.7-2-8.5c-0.5-1.9-1-3.7-1.5-5.5c-1.4-6.2-1.5-11.1-0.3-15.4&#10;&#9;&#9;c0.5-1.8,1.6-3.4,3.2-4.4c1-0.5,2.1-0.6,3.2-0.3c1.1,0.4,2.1,1.2,2.7,2.2c3.7,5.2,5.9,11.1,8,16.9l0.2,0.5c0.4,1.1,0.8,2.2,1.2,3.2&#10;&#9;&#9;c0.4,1.1-0.2,2.2-1.2,2.6s-2.2-0.2-2.6-1.2c-0.4-1.1-0.8-2.1-1.2-3.2l-0.2-0.5c-2-5.5-4-11.2-7.4-15.9c-0.4-0.6-0.6-0.7-0.7-0.8&#10;&#9;&#9;c-0.6,0.5-1,1.2-1.2,1.9c-1,3.6-0.9,7.9,0.4,13.4c0.4,1.8,0.9,3.6,1.4,5.4c0.9,2.9,1.6,5.9,2.1,8.9c0.2,1.1-0.5,2.1-1.6,2.3&#10;&#9;&#9;c0,0,0,0-0.1,0C225.1,283.2,225,283.2,224.9,283.2z"/>
	<path class="st6_online-search-92" d="M185.4,246.6c-0.4-1.3-0.7-2.5-1-3.8c-1.7-8.1-0.4-16.6,3.6-23.8c4.4-8,9.5-9.3,16.7-13.4&#10;&#9;&#9;c29.1-16.5,11.5-61-16.5-66.8c-2.3-0.5-4.7-0.7-6.7-1.9s-3.7-3.2-5.4-5.1c-15.4-17-44.2-17.9-65-11.8&#10;&#9;&#9;c-33.5,9.7-49.3,46.8-49.3,79.1c0,6.9,0.7,14.2-2,20.6c-5.3,12.5-22,17.8-26.2,30.7c-3.2,10,2,21.9-3.2,31&#10;&#9;&#9;c-3,5.1-8.6,8.1-12.7,12.4c-17.6,18.2,17,25.4,29,26c16.7,0.9,32.6-0.9,49.1-0.6c19.9,0.4,39.7-2.1,58.9-7.3&#10;&#9;&#9;c10.2-2.8,21.9-8.3,23.1-18.7c0.6-4.9-1.4-10.1,0.4-14.7s6.6-7.2,9-11.5C190.4,260.8,187.5,253.6,185.4,246.6z"/>
	<path class="st1_online-search-92" d="M136,318.1c-13.3,2.3-26.9,3.4-40.4,3.1c-7.2-0.1-14.4,0.1-21.4,0.4c-9,0.4-18.3,0.7-27.7,0.2&#10;&#9;&#9;c-7.7-0.4-30.8-4-35.1-15c-1.8-4.5-0.2-9.4,4.8-14.5c1.6-1.6,3.3-3.1,5.1-4.5c2.9-2.3,5.6-4.5,7.2-7.4c2.6-4.5,2.3-10,2-15.7&#10;&#9;&#9;c-0.3-5-0.5-10.1,1-14.9c2.4-7.3,8.2-12.2,13.9-17c5.1-4.3,9.9-8.3,12.3-13.9c2.1-4.9,2-10.4,1.9-16.2c0-1.2,0-2.4,0-3.5&#10;&#9;&#9;c0-32,15.9-71,50.8-81.1c22-6.4,51.3-5,67.1,12.4c0.3,0.3,0.6,0.7,0.9,1c1.1,1.4,2.4,2.7,3.9,3.6c1.5,0.7,3,1.1,4.6,1.4&#10;&#9;&#9;c0.5,0.1,1,0.2,1.5,0.3c15.8,3.3,29.9,19.2,32.6,36.9c2.3,14.5-3.4,26.8-15.5,33.7c-1.4,0.8-2.8,1.5-4,2.2&#10;&#9;&#9;c-5,2.6-8.6,4.5-11.9,10.4c-3.8,6.8-5,14.7-3.4,22.4c0.3,1.2,0.6,2.4,1,3.6c0.2,0.8,0.5,1.6,0.7,2.4c2,6.6,4.1,13.4,0.8,19.7&#10;&#9;&#9;c-1.2,2.1-2.8,4-4.6,5.6c-1.8,1.8-3.5,3.5-4.3,5.6c-0.9,2.3-0.6,4.9-0.4,7.7c0.3,2.1,0.3,4.3,0.1,6.5c-1.1,9.3-9.6,16.4-24.6,20.5&#10;&#9;&#9;C148.8,315.6,142.4,317,136,318.1z M120.7,119.9c-3.1,0.5-6.1,1.2-9.1,2.1c-32.9,9.5-47.9,46.7-47.9,77.1c0,1.1,0,2.3,0,3.4&#10;&#9;&#9;c0.1,6,0.2,12.2-2.2,17.9c-2.8,6.5-8.2,11-13.4,15.4c-5.5,4.6-10.7,8.9-12.7,15.1c-1.3,4.1-1.1,8.6-0.8,13.4&#10;&#9;&#9;c0.3,6.1,0.7,12.4-2.5,18c-2.1,3.5-5.1,6.1-8.2,8.5c-1.7,1.3-3.3,2.7-4.8,4.2c-3.7,3.9-5,7.3-3.9,10.2c3,7.7,22,11.9,31.5,12.4&#10;&#9;&#9;c9.2,0.5,18.5,0.1,27.4-0.2c7-0.3,14.3-0.5,21.6-0.4c19.7,0.4,39.3-2,58.4-7.1c9.2-2.5,20.5-7.5,21.6-17c0.1-1.9,0.1-3.8-0.1-5.6&#10;&#9;&#9;c-0.3-3.1-0.6-6.4,0.6-9.5c1.1-2.9,3.2-5,5.2-7c1.5-1.4,2.8-3,3.9-4.7c2.6-4.8,0.8-10.5-1.1-16.5l-0.8-2.4l0,0&#10;&#9;&#9;c-0.4-1.3-0.8-2.6-1-3.9c-1.8-8.6-0.5-17.6,3.8-25.3c3.9-7,8.4-9.3,13.6-12.1c1.2-0.6,2.5-1.3,3.9-2.1c10.6-6,15.5-16.8,13.5-29.5&#10;&#9;&#9;c-2.5-16.1-15.2-30.6-29.4-33.6l-1.4-0.3c-2-0.3-4-0.9-5.9-1.8c-1.9-1.2-3.7-2.7-5.1-4.5l-0.8-1C162,119.4,139.9,116.6,120.7,119.9&#10;&#9;&#9;z"/>
</g>
</svg>